<?xml version="1.0" encoding="UTF-8"?>
<svg width="600px" height="600px" viewBox="0 0 600 600" version="1.1" xmlns="http://www.w3.org/2000/svg" xmlns:xlink="http://www.w3.org/1999/xlink">
    <!-- Generator: Sketch 48.1 (47250) - http://www.bohemiancoding.com/sketch -->
    <title>1</title>
    <desc>Created with Sketch.</desc>
    <defs></defs>
    <g id="Page-1" stroke="none" stroke-width="1" fill="none" fill-rule="evenodd">
        <g id="1" transform="translate(10.000000, 10.000000)" fill-rule="nonzero">
            <path d="M290.00001,-9.99999997e-07 C450.07999,6.1e-05 580.00009,129.92 580.00009,289.99999 C579.99999,450.08002 450.08009,580 290.00001,580 C129.92003,580.00002 5.68434189e-14,450.08 5.68434189e-14,289.99999 C-0.00011,129.92006 129.92003,-9.99999997e-07 290.00001,-9.99999997e-07 Z" id="path2178" stroke="#000000" stroke-width="20"></path>
            <path d="M323.40623,36.374999 L323.40623,66.156249 C360.88143,71.69809 395.36738,86.37166 424.49998,107.9375 L445.53123,86.9375 C410.76153,60.255201 368.96973,42.319979 323.40623,36.374999 Z M256.43748,36.468749 C210.90038,42.44799 169.14973,60.420589 134.40623,87.09375 L155.31248,108.09375 L155.40623,108.09375 C184.52324,86.51383 218.97578,71.73029 256.43748,66.156249 L256.43748,36.468749 Z M271.24998,97.15625 L271.24998,197.40625 C259.10528,199.85801 247.75343,204.58947 237.78123,211.21875 L166.87498,140.34375 L140.34373,166.875 L211.31248,237.84375 C204.70118,247.80319 199.88488,259.12654 197.43748,271.25 L97.15623,271.25 L97.15623,308.75 L197.43748,308.75 C199.88437,320.8677 204.70538,332.10674 211.31248,342.0625 L140.34373,413.0625 L166.87498,439.59375 L237.78123,368.6875 C247.75343,375.31678 259.10528,380.11076 271.24998,382.5625 L271.24998,482.84375 L308.74998,482.84375 L308.74998,382.5625 C320.90628,380.10842 332.17693,375.23291 342.15623,368.59375 L413.12498,439.59375 L439.65623,413.0625 L368.68748,342.0625 C375.29207,332.10845 380.14733,320.86486 382.59373,308.75 L482.84373,308.75 L482.84373,271.25 L382.59373,271.25 C380.14674,259.12922 375.29648,247.80157 368.68748,237.84375 L439.65623,166.875 L413.12498,140.34375 L342.15623,211.3125 C332.17703,204.67335 320.90628,199.86033 308.74998,197.40625 L308.74998,97.15625 L271.24998,97.15625 Z M492.90623,134.3125 L471.90623,155.3125 C493.52734,184.45744 508.27023,219.02135 513.84373,256.53125 L543.62498,256.53125 C537.64609,210.94142 519.64223,169.08624 492.90623,134.3125 Z M86.99998,134.46875 C60.31878,169.20898 42.34788,210.99325 36.37498,256.53125 L66.18748,256.53125 C71.75408,219.082 86.45683,184.61548 108.03123,155.5 L86.99998,134.46875 Z M36.37498,323.46875 C42.33088,369.0003 60.27128,410.78243 86.93748,445.53125 L107.93748,424.5 C86.38728,395.38855 71.73858,360.91253 66.18748,323.46875 L36.37498,323.46875 Z M513.84373,323.46875 C508.26731,360.9542 493.51773,395.44773 471.90623,424.59375 L492.90623,445.59375 C519.61504,410.83221 537.63858,369.03157 543.62498,323.46875 L513.84373,323.46875 Z M155.31248,471.90625 L134.31248,492.90625 C169.06528,519.62606 210.87958,537.63526 256.43748,543.625 L256.43748,513.8125 C218.95938,508.22964 184.43608,493.51153 155.31248,471.90625 Z M424.49998,471.96875 C395.35759,493.5553 360.89693,508.35765 323.40623,513.90625 L323.40623,543.625 C368.97433,537.67388 410.76143,519.6815 445.53123,493 L424.59373,471.96875 L424.49998,471.96875 Z" id="path2176" fill="#000000"></path>
        </g>
    </g>
</svg>