<?xml version="1.0" encoding="UTF-8"?>
<svg width="601px" height="612px" viewBox="0 0 601 612" version="1.1" xmlns="http://www.w3.org/2000/svg" xmlns:xlink="http://www.w3.org/1999/xlink">
    <!-- Generator: Sketch 48.1 (47250) - http://www.bohemiancoding.com/sketch -->
    <title>path8305</title>
    <desc>Created with Sketch.</desc>
    <defs></defs>
    <g id="Page-1" stroke="none" stroke-width="1" fill="none" fill-rule="evenodd">
        <g id="2" fill="#FFFFFF" fill-rule="nonzero">
            <path d="M300.95725,0.0077596 L245.15725,61.9077596 C264.65725,89.9077596 271.95725,123.60776 271.95725,140.50776 C255.35725,111.20776 237.15725,102.80776 219.15725,90.7077596 L183.35725,130.60776 C232.15725,147.50776 262.05725,205.40776 262.05725,265.20776 C262.05725,294.10776 252.05725,362.90776 183.35725,359.90776 L183.35725,359.60776 C132.65725,353.60776 84.95725,294.70776 80.65725,230.30776 C76.35725,166.20776 103.55725,103.70776 148.45725,51.9077596 L148.25725,51.9077596 C66.35725,100.70776 9.45725,187.60776 1.85725,288.90776 C1.65725,291.40776 1.55725,293.90776 1.35725,296.40776 C1.35725,296.50776 1.35725,296.50776 1.35725,296.60776 C1.25725,299.10776 1.15725,301.70776 1.05725,304.20776 C0.95725,306.80776 0.95725,309.40776 0.95725,312.00776 C0.95725,477.60776 135.35725,612.00776 300.95725,612.00776 C466.55725,612.00776 600.95725,477.60776 600.95725,312.00776 C600.95725,304.20776 600.65725,296.50776 600.05725,288.90776 C592.45725,187.60776 535.55725,100.60776 453.55725,51.8077596 L453.35725,51.8077596 C498.25725,103.60776 525.45725,166.10776 521.15725,230.20776 C516.95725,294.60776 469.35725,353.50776 418.65725,359.60776 L418.65725,359.90776 C349.85725,362.90776 339.95725,294.10776 339.95725,265.20776 C339.95725,205.40776 369.85725,147.60776 418.65725,130.60776 L382.75725,90.7077596 C364.75725,102.80776 346.55725,111.30776 329.95725,140.50776 C329.95725,123.60776 337.25725,89.9077596 356.75725,61.9077596 L300.95725,0.0077596 Z" id="path8305"></path>
        </g>
    </g>
</svg>